<?xml version="1.0" encoding="UTF-8"?>
<svg version="1.1" viewBox="0 0 2048 2048" width="1280" height="1280" xmlns="http://www.w3.org/2000/svg">
<path transform="translate(508,127)" d="m0 0h1033l34 2 31 4 27 6 21 6 27 10 27 12 22 12 19 12 18 13 16 13 14 12 25 25 9 11 11 13 13 19 10 15 11 19 11 23 8 19 7 20 7 24 6 28 4 30 1 12 1 32v929l-1 112-2 23-5 30-6 25-8 26-11 28-8 17-11 20-6 10-12 18-9 12-10 13-11 12-1 2h-2l-2 4-20 20-11 9-13 11-15 11-20 13-23 13-27 13-24 9-29 9-33 7-33 4-15 1h-1059l-28-2-31-5-32-8-24-8-20-8-29-14-21-12-15-10-15-11-16-13-12-11-10-9-7-7v-2h-2l-7-8-9-10-11-14-13-18-13-21-12-22-11-24-10-27-8-28-5-24-4-28-2-32v-1043l2-30 4-28 6-27 7-24 9-25 9-20 10-20 10-17 10-15 12-17 13-16 14-15 3-4h2l2-4 4-4h2v-2l8-7 10-9 17-13 15-11 19-12 16-9 15-8 23-10 25-9 29-8 26-5 22-3zm94 353-19 3-14 5-13 7-14 11-4 4v2h-2l-8 11-7 12-6 17-2 12-1 22v880l1 18 3 16 6 15 9 14 9 10 7 7 15 10 16 7 13 3 6 1h21l16-3 13-5 15-8 11-9 8-8 8-11 8-16 4-13 2-12v-915l-3-17-5-14-7-13-7-9-8-9-12-9-12-7-13-5-14-3-9-1zm356 0-19 2-16 5-15 8-9 7-9 8v2h-2l-8 11-6 10-6 16-3 16-1 37v859l1 22 3 16 6 16 9 14 9 11 11 9 13 8 14 6 14 3 6 1h162l38-3 35-5 36-8 35-10 28-10 24-10 29-14 19-10 20-12 27-18 16-12 16-13 11-9 16-15 4-3v-2l4-2 6-6v-2h2l7-8 13-14v-2h2l9-11 11-14 14-19 10-15 12-19 15-27 14-29 11-27 9-25 10-35 8-37 4-25 3-31 1-17v-50l-3-36-5-35-7-33-8-29-10-30-13-32-16-33-14-25-14-22-11-16-12-16-8-10-11-13-12-14-33-33-11-9-9-8-14-11-19-14-18-12-21-13-18-10-19-10-29-13-29-11-32-10-28-7-31-6-30-4-28-2-31-1z"/>
<path transform="translate(1057,671)" d="m0 0h42l36 3 25 4 28 7 24 8 24 10 19 10 18 10 15 10 16 12 10 8 10 9 8 7 17 17 9 11 10 12 13 18 13 21 15 29 11 27 8 25 7 30 4 28 1 12v49l-2 21-4 24-6 26-11 33-12 27-11 21-14 22-7 10-13 17-11 12-7 8-13 13-8 7-13 11-19 14-19 12-21 12-21 10-29 11-25 7-30 6-24 3-42 2h-20l-3-2v-702z"/>
</svg>
