<?xml version="1.0" encoding="UTF-8"?>
<svg version="1.1" xmlns="http://www.w3.org/2000/svg" width="512" height="512">
<path d="M0 0 C1.13701859 0.24243439 2.27403717 0.48486877 3.44551086 0.73464966 C4.71170761 1.01444672 5.97790436 1.29424377 7.2824707 1.58251953 C8.69210898 1.8884056 10.10183722 2.19387727 11.51164246 2.49899292 C16.74754738 3.63782904 21.9779385 4.80112888 27.20825195 5.96533203 C28.28683723 6.20502213 29.36542252 6.44471222 30.4766922 6.69166565 C46.12737061 10.17100761 61.7695457 13.68696625 77.40527534 17.2327919 C85.16700293 18.99284663 92.93031778 20.74549675 100.69598943 22.48807061 C106.2424822 23.73330577 111.78704247 24.98691466 117.33025759 26.24665916 C120.60870462 26.99149805 123.88800931 27.73175244 127.1690464 28.46515274 C130.80796578 29.27939897 134.44352365 30.10732388 138.07861328 30.93847656 C139.13376633 31.17132355 140.18891937 31.40417053 141.27604675 31.64407349 C155.35518775 34.90320061 167.87000454 40.02383747 176.14575195 52.40283203 C181.40184975 60.86166263 182.65312392 68.80119977 182.59643555 78.62182617 C182.60432098 80.32161369 182.60432098 80.32161369 182.61236572 82.05574036 C182.62552226 85.78746511 182.61683369 89.51875944 182.60668945 93.25048828 C182.60871352 95.87056051 182.61162773 98.4906322 182.61538696 101.11070251 C182.62083492 106.60566787 182.61369043 112.10051208 182.59936523 117.59545898 C182.58316261 123.88173776 182.58823985 130.16772264 182.60484445 136.45399386 C182.62031256 142.56166217 182.61840003 148.66920413 182.60969925 154.77688408 C182.60772342 157.34438558 182.61006233 159.91189477 182.61713791 162.47938728 C182.66181997 183.27528487 181.308677 203.76956457 176.64575195 224.09033203 C176.27220581 225.73594116 176.27220581 225.73594116 175.89111328 227.41479492 C170.93023519 248.30990166 163.74995422 268.72584283 154.20825195 287.96533203 C153.83265137 288.738125 153.45705078 289.51091797 153.07006836 290.30712891 C144.20048454 308.44383392 132.96463919 325.32912446 120.20825195 340.96533203 C119.78463379 341.49046387 119.36101562 342.0155957 118.92456055 342.55664062 C106.93296928 357.34025131 93.39292791 371.45066839 78.20825195 382.96533203 C77.21051758 383.75681641 76.2127832 384.54830078 75.18481445 385.36376953 C52.43795546 403.35241028 15.49921144 430.6287696 -14.79174805 427.96533203 C-60.13029463 422.14910426 -111.51662975 377.26868937 -138.56518555 342.87548828 C-139.29995117 341.91513672 -140.0347168 340.95478516 -140.79174805 339.96533203 C-141.23550781 339.3979834 -141.67926758 338.83063477 -142.13647461 338.24609375 C-161.38700473 313.62650097 -176.37298387 286.44147933 -186.79174805 256.96533203 C-187.21810547 255.77278809 -187.21810547 255.77278809 -187.65307617 254.55615234 C-191.09029325 244.79528408 -193.6607022 234.85871669 -195.97924805 224.77783203 C-196.21732178 223.76495117 -196.45539551 222.75207031 -196.70068359 221.70849609 C-201.30063645 200.83215904 -202.26758822 179.9204248 -202.26049805 158.60986328 C-202.26581466 156.63421965 -202.27114132 154.65857592 -202.27736521 152.68293494 C-202.29636072 146.512625 -202.29956645 140.34245024 -202.29272461 134.17211914 C-202.28604801 127.85393505 -202.30914714 121.53632934 -202.34603834 115.21826249 C-202.38059638 109.07152612 -202.38706155 102.92506113 -202.38294983 96.77823448 C-202.38463273 94.19045968 -202.3941943 91.60267659 -202.41209412 89.01496315 C-202.60445127 57.81984255 -202.60445127 57.81984255 -190.1081543 45.11767578 C-180.06226465 35.78329939 -169.13606819 32.79971281 -155.8984375 29.9284668 C-154.65766449 29.65306061 -153.41689148 29.37765442 -152.13851929 29.09390259 C-148.76515814 28.34535755 -145.38984405 27.60600589 -142.01406121 26.86847043 C-138.44605451 26.08732369 -134.87990617 25.29777843 -131.31352234 24.50926208 C-125.31377011 23.1839452 -119.31284175 21.86407654 -113.31103516 20.5480957 C-104.9318489 18.71082835 -96.55490702 16.8634917 -88.17836821 15.01419747 C-81.58771728 13.55961479 -74.9963914 12.10809425 -68.4050293 10.65673828 C-67.71553955 10.50486596 -67.02604981 10.35299365 -66.31566644 10.19651914 C-57.98739156 8.36233035 -49.65707278 6.537933 -41.32260513 4.73204422 C-38.9718349 4.2215834 -36.6216687 3.70833279 -34.27212143 3.19227219 C-30.97590307 2.46918364 -27.67755274 1.75676499 -24.37841797 1.04711914 C-23.41820645 0.83428819 -22.45799494 0.62145723 -21.4686861 0.40217686 C-14.04673407 -1.17479198 -7.49961902 -1.62102071 0 0 Z " fill="#20BF55" transform="translate(265.791748046875,42.03466796875)"/>
<path d="M0 0 C5.93902433 2.67141442 9.74406231 7.14484342 13.0234375 12.66015625 C14.56679632 19.29659917 14.37963689 24.79830214 11.21633911 30.94239807 C7.73606772 36.28134994 2.90853946 40.58968383 -1.6171875 45.0390625 C-2.73654314 46.15348379 -3.85507972 47.2687283 -4.97283936 48.38475037 C-7.31038433 50.71468441 -9.65420148 53.03803647 -12.00341797 55.35620117 C-14.99517168 58.30845208 -17.97612439 61.27130303 -20.95303726 64.23851109 C-23.81677092 67.09220441 -26.68536561 69.94098962 -29.5546875 72.7890625 C-30.36069775 73.58997912 -30.36069775 73.58997912 -31.18299103 74.40707588 C-40.73508778 83.88646986 -40.73508778 83.88646986 -45.42871094 87.90722656 C-50.02548966 91.85093903 -54.2326807 96.16319675 -58.47189331 100.48451805 C-59.94971426 101.98943032 -61.43225059 103.48954836 -62.91625977 104.98835754 C-67.12961517 109.24403027 -71.33998154 113.50253494 -75.53417969 117.77709961 C-78.11525549 120.40694139 -80.70620459 123.02670414 -83.30368042 125.64034462 C-84.28327453 126.62976401 -85.25922166 127.62280937 -86.23123169 128.6196804 C-97.7857456 140.46336758 -97.7857456 140.46336758 -106.6953125 141.87890625 C-107.736875 141.86859375 -108.7784375 141.85828125 -109.8515625 141.84765625 C-111.41390625 141.863125 -111.41390625 141.863125 -113.0078125 141.87890625 C-120.95929076 140.61558727 -126.19860498 136.06735814 -131.6328125 130.421875 C-132.61948914 129.42315117 -132.61948914 129.42315117 -133.62609863 128.4042511 C-135.71101624 126.29055841 -137.78177606 124.16365833 -139.8515625 122.03515625 C-141.92387824 119.92002007 -143.99911597 117.8078364 -146.07702637 115.69819641 C-147.36316335 114.39074393 -148.64574648 113.07978147 -149.9239502 111.76457214 C-153.6381232 107.96922792 -157.48034503 104.4034643 -161.51383972 100.94871521 C-164.51955908 98.33007546 -167.34457306 95.53877712 -170.1640625 92.72265625 C-170.72287109 92.17609375 -171.28167969 91.62953125 -171.85742188 91.06640625 C-177.69662777 85.24807952 -180.44070739 80.34631758 -180.6640625 72.03515625 C-180.58009819 65.72104014 -179.09936311 62.10183227 -174.66796875 57.66015625 C-169.925869 53.41776163 -166.23135073 51.05361261 -159.7265625 50.84765625 C-158.76492187 50.79609375 -157.80328125 50.74453125 -156.8125 50.69140625 C-148.09055593 52.3452286 -141.37203779 58.74559419 -135.375 64.93359375 C-134.67887604 65.6353775 -133.98275208 66.33716125 -133.26553345 67.06021118 C-131.07617664 69.27169671 -128.90126151 71.49676513 -126.7265625 73.72265625 C-125.23140775 75.23790629 -123.73532159 76.75223786 -122.23828125 78.265625 C-118.59853864 81.94912256 -114.97166522 85.64485922 -111.3515625 89.34765625 C-105.59373525 85.27153238 -100.56507902 80.82261312 -95.6328125 75.7890625 C-94.93063599 75.08168442 -94.22845947 74.37430634 -93.50500488 73.64549255 C-91.28231137 71.40514955 -89.06647578 69.15818928 -86.8515625 66.91015625 C-84.63579249 64.66657424 -82.41849557 62.42455623 -80.19812012 60.18553162 C-78.8239072 58.79926645 -77.45237119 57.41034016 -76.08410645 56.01820374 C-72.29296665 52.18802688 -68.37923372 48.58911739 -64.29943848 45.06944275 C-61.16113232 42.29539901 -58.2289991 39.32895516 -55.2890625 36.34765625 C-54.65347412 35.70828125 -54.01788574 35.06890625 -53.36303711 34.41015625 C-51.356726 32.39177228 -49.35372249 30.37015749 -47.3515625 28.34765625 C-31.20742671 12.03950166 -31.20742671 12.03950166 -24.3515625 6.34765625 C-23.80467773 5.87223389 -23.25779297 5.39681152 -22.69433594 4.90698242 C-15.81395376 -1.01896293 -8.9469278 -2.48195506 0 0 Z " fill="#EBEAE9" transform="translate(350.3515625,173.65234375)"/>
</svg>
